<svg width="43" height="44" viewBox="0 0 43 44" fill="none" xmlns="http://www.w3.org/2000/svg">
<rect width="42.4122" height="43.3146" rx="11.731" fill="#F0BB1F"/>
<path d="M12.2225 15.7696C11.9549 15.7696 11.7359 15.5507 11.731 15.2831V12.2225C11.731 11.95 11.95 11.731 12.2225 11.731H15.2831C15.5507 11.731 15.7697 11.95 15.7697 12.2225V13.2881H27.5449V12.2225C27.5449 11.9548 27.7639 11.7359 28.0315 11.731H31.0921C31.3597 11.731 31.5787 11.95 31.5836 12.2225V15.2831C31.5836 15.5507 31.3646 15.7696 31.0921 15.7696H30.0265V27.5449H31.0921C31.3597 27.5449 31.5787 27.7639 31.5836 28.0315V31.0921C31.5836 31.3597 31.3646 31.5787 31.0921 31.5836H28.0315C27.7639 31.5836 27.5449 31.3646 27.5449 31.0921V30.0265H15.7697V31.0921C15.7697 31.3597 15.5507 31.5787 15.2831 31.5836H12.2225C11.9549 31.5836 11.7359 31.3646 11.731 31.0921V28.0315C11.731 27.7639 11.95 27.5449 12.2225 27.5449H13.2881V15.7696H12.2225ZM30.6104 14.7965V12.7042H28.5181V14.7965H30.6104ZM28.5181 30.6104H30.6104V28.5181H28.5181V30.6104ZM15.7697 28.0315V29.0533H27.5449V28.0315C27.5449 27.7639 27.7639 27.5449 28.0315 27.5449H29.0533V15.7696H28.0315C27.7639 15.7696 27.5449 15.5507 27.5449 15.2831V14.2612H15.7697V15.2831C15.7697 15.5507 15.5507 15.7696 15.2831 15.7696H14.2612V27.5449H15.2831C15.5507 27.5449 15.7697 27.7639 15.7697 28.0315ZM12.7042 28.5181V30.6104H14.7965V28.5181H12.7042ZM14.7965 14.7965V12.7042H12.7042V14.7965H14.7965Z" fill="white"/>
</svg>
