<svg width="43" height="44" viewBox="0 0 43 44" fill="none" xmlns="http://www.w3.org/2000/svg">
<rect width="42.4122" height="43.3146" rx="11.731" fill="#F15A2B"/>
<path d="M29.6149 28.8121C29.2087 28.8204 28.8097 28.7041 28.4715 28.479C28.2197 28.3145 27.9255 28.2269 27.6248 28.2269C27.3241 28.2269 27.0298 28.3145 26.7781 28.479C26.4364 28.6965 26.0398 28.8121 25.6348 28.8121C25.2298 28.8121 24.8331 28.6965 24.4915 28.479C24.2398 28.3143 23.9455 28.2267 23.6447 28.2267C23.3439 28.2267 23.0496 28.3143 22.7978 28.479C22.4562 28.6965 22.0596 28.8121 21.6545 28.8121C21.2495 28.8121 20.8529 28.6965 20.5112 28.479C20.2597 28.3144 19.9656 28.2268 19.665 28.2268C19.3644 28.2268 19.0703 28.3144 18.8187 28.479C18.509 28.6849 18.1475 28.7993 17.7757 28.8091L17.7552 28.2238C18.0298 28.2173 18.2965 28.1304 18.5223 27.9739C18.8638 27.7564 19.2604 27.6409 19.6653 27.6409C20.0702 27.6409 20.4667 27.7564 20.8083 27.9739C21.06 28.1384 21.3542 28.2261 21.655 28.2261C21.9557 28.2261 22.2499 28.1384 22.5017 27.9739C22.8434 27.7562 23.2401 27.6406 23.6452 27.6406C24.0504 27.6406 24.4471 27.7562 24.7888 27.9739C25.0406 28.1384 25.3348 28.2261 25.6355 28.2261C25.9363 28.2261 26.2305 28.1384 26.4822 27.9739C26.8239 27.7564 27.2205 27.6409 27.6255 27.6409C28.0305 27.6409 28.4271 27.7564 28.7688 27.9739C29.0211 28.1388 29.3161 28.2267 29.6175 28.2267C29.919 28.2267 30.2139 28.1388 30.4663 27.9739C30.8041 27.7494 31.2024 27.6334 31.608 27.6414V28.2267C31.306 28.2185 31.0093 28.3067 30.761 28.4787C30.4219 28.7042 30.022 28.8205 29.6149 28.8121Z" fill="white"/>
<path d="M13.6968 28.8121C13.2907 28.8205 12.8917 28.7043 12.5536 28.479C12.3054 28.3069 12.0086 28.2185 11.7067 28.2268V27.6414C12.1129 27.633 12.512 27.7492 12.8501 27.9745C13.0982 28.1466 13.3949 28.235 13.6968 28.2268C13.9988 28.2351 14.2956 28.1466 14.5438 27.9742C14.8812 27.7491 15.2796 27.6329 15.6852 27.6414C16.0809 27.6325 16.4701 27.7434 16.8017 27.9596L16.5064 28.4647C16.2642 28.3017 15.977 28.2185 15.6852 28.2268C15.3844 28.2186 15.0889 28.3068 14.8417 28.4785C14.5032 28.7043 14.1036 28.8208 13.6968 28.8121Z" fill="white"/>
<path d="M29.6158 26.7631C29.2093 26.7714 28.81 26.6552 28.4715 26.43C28.2195 26.2654 27.925 26.1777 27.6241 26.1777C27.3231 26.1777 27.0286 26.2654 26.7766 26.43C26.435 26.6475 26.0385 26.763 25.6335 26.763C25.2285 26.763 24.832 26.6475 24.4903 26.43C24.2387 26.2655 23.9446 26.1779 23.6439 26.1779C23.3433 26.1779 23.0492 26.2655 22.7976 26.43C22.4559 26.6476 22.0594 26.7631 21.6544 26.7631C21.2494 26.7631 20.8528 26.6476 20.5112 26.43C20.2596 26.2655 19.9655 26.1779 19.6648 26.1779C19.3642 26.1779 19.0701 26.2655 18.8185 26.43C18.4804 26.6553 18.0814 26.7715 17.6753 26.7631C17.2692 26.7715 16.8702 26.6553 16.5321 26.43C16.2841 26.2579 15.9876 26.1695 15.6858 26.1778C15.3841 26.1696 15.0876 26.258 14.8397 26.43C14.5021 26.655 14.1038 26.7713 13.6983 26.7631C13.292 26.7715 12.893 26.6553 12.5548 26.43C12.3063 26.2576 12.0091 26.1692 11.7067 26.1778V25.5924C12.1128 25.584 12.5118 25.7003 12.8498 25.9255C13.0981 26.0976 13.3948 26.186 13.6968 26.1778C13.9985 26.186 14.2949 26.0976 14.5429 25.9255C14.8804 25.7005 15.2787 25.5843 15.6843 25.5924C16.0907 25.5838 16.49 25.7 16.8283 25.9255C17.0765 26.0976 17.3731 26.186 17.675 26.1778C17.9769 26.186 18.2736 26.0976 18.5217 25.9255C18.8633 25.7079 19.2599 25.5924 19.6648 25.5924C20.0698 25.5924 20.4664 25.7079 20.808 25.9255C21.0597 26.0901 21.3538 26.1777 21.6545 26.1777C21.9552 26.1777 22.2494 26.0901 22.5011 25.9255C22.8427 25.7079 23.2392 25.5924 23.6442 25.5924C24.0492 25.5924 24.4458 25.7079 24.7874 25.9255C25.0391 26.0901 25.3332 26.1777 25.6339 26.1777C25.9346 26.1777 26.2288 26.0901 26.4805 25.9255C26.8224 25.708 27.2193 25.5925 27.6245 25.5925C28.0297 25.5925 28.4266 25.708 28.7685 25.9255C29.0206 26.09 29.3152 26.1776 29.6162 26.1776C29.9173 26.1776 30.2118 26.09 30.4639 25.9255C30.8024 25.7004 31.2016 25.5842 31.608 25.5924V26.1778C31.3054 26.1692 31.008 26.2576 30.7592 26.43C30.421 26.655 30.022 26.7712 29.6158 26.7631Z" fill="white"/>
<path d="M29.6149 24.7148C29.2087 24.7231 28.8097 24.6069 28.4715 24.3817C28.2232 24.2096 27.9265 24.1212 27.6245 24.1294C27.4029 24.1218 27.1828 24.1691 26.9838 24.267L26.7257 23.7402C27.0051 23.6033 27.3134 23.5357 27.6245 23.5432C28.0312 23.5349 28.4307 23.6515 28.7691 23.8772C29.0214 24.0421 29.3164 24.13 29.6178 24.13C29.9193 24.13 30.2142 24.0421 30.4666 23.8772C30.8043 23.6525 31.2025 23.5363 31.608 23.5441V24.1294C31.306 24.1212 31.0093 24.2095 30.761 24.3814C30.4219 24.6069 30.022 24.7232 29.6149 24.7148Z" fill="white"/>
<path d="M25.6317 24.7147C25.2262 24.7232 24.8278 24.607 24.4903 24.3819C24.2386 24.2173 23.9443 24.1296 23.6435 24.1296C23.3427 24.1296 23.0484 24.2173 22.7967 24.3819C22.455 24.5994 22.0584 24.715 21.6534 24.715C21.2483 24.715 20.8517 24.5994 20.5101 24.3819C20.2583 24.2174 19.9641 24.1297 19.6634 24.1297C19.3626 24.1297 19.0684 24.2174 18.8167 24.3819C18.4787 24.6068 18.08 24.7229 17.6741 24.7147C17.268 24.7231 16.869 24.6068 16.531 24.3816C16.2827 24.2095 15.986 24.1211 15.684 24.1293C15.3832 24.1212 15.0877 24.2094 14.8405 24.381C14.5024 24.6067 14.1032 24.7231 13.6968 24.7147C13.2907 24.7231 12.8917 24.6068 12.5536 24.3816C12.3054 24.2095 12.0086 24.1211 11.7067 24.1293V23.544C12.1129 23.5356 12.512 23.6518 12.8501 23.8771C13.0982 24.0492 13.3949 24.1376 13.6968 24.1293C13.9988 24.1376 14.2956 24.0491 14.5438 23.8768C14.8812 23.6516 15.2796 23.5355 15.6852 23.544C16.0913 23.5356 16.4902 23.6519 16.8283 23.8771C17.0765 24.0492 17.3731 24.1376 17.675 24.1293C17.977 24.1376 18.2737 24.0492 18.522 23.8771C18.8636 23.6596 19.2603 23.544 19.6653 23.544C20.0703 23.544 20.4669 23.6596 20.8086 23.8771C21.0603 24.0416 21.3545 24.1293 21.6553 24.1293C21.956 24.1293 22.2502 24.0416 22.502 23.8771C22.8437 23.6594 23.2404 23.5438 23.6455 23.5438C24.0507 23.5438 24.4474 23.6594 24.7891 23.8771C25.047 24.0505 25.3527 24.1386 25.6633 24.1291C25.6859 24.1293 25.7085 24.1282 25.7309 24.1255L25.8088 24.7056C25.75 24.7125 25.6909 24.7155 25.6317 24.7147Z" fill="white"/>
<path d="M29.6158 22.6657C29.2093 22.674 28.81 22.5578 28.4715 22.3327C28.2195 22.168 27.925 22.0803 27.6241 22.0803C27.3231 22.0803 27.0286 22.168 26.7766 22.3327C26.435 22.5501 26.0385 22.6657 25.6335 22.6657C25.2285 22.6657 24.832 22.5501 24.4903 22.3327C24.2387 22.1681 23.9446 22.0805 23.6439 22.0805C23.3433 22.0805 23.0492 22.1681 22.7976 22.3327C22.4559 22.5502 22.0594 22.6658 21.6544 22.6658C21.2494 22.6658 20.8528 22.5502 20.5112 22.3327C20.2596 22.1681 19.9655 22.0805 19.6648 22.0805C19.3642 22.0805 19.0701 22.1681 18.8185 22.3327C18.4804 22.5579 18.0814 22.6742 17.6753 22.6657C17.2692 22.6742 16.8702 22.5579 16.5321 22.3327C16.2841 22.1606 15.9876 22.0722 15.6858 22.0804C15.3841 22.0722 15.0876 22.1606 14.8397 22.3327C14.5021 22.5577 14.1038 22.6739 13.6983 22.6657C13.292 22.6742 12.893 22.5579 12.5548 22.3327C12.3063 22.1602 12.0091 22.0718 11.7067 22.0804V21.4951C12.1128 21.4867 12.5118 21.6029 12.8498 21.8281C13.0981 22.0002 13.3948 22.0886 13.6968 22.0804C13.9985 22.0886 14.2949 22.0002 14.5429 21.8281C14.8804 21.6031 15.2787 21.4869 15.6843 21.4951C16.0907 21.4864 16.49 21.6027 16.8283 21.8281C17.0765 22.0003 17.3731 22.0887 17.675 22.0804C17.9769 22.0887 18.2736 22.0003 18.5217 21.8281C18.8633 21.6106 19.2599 21.495 19.6648 21.495C20.0698 21.495 20.4664 21.6106 20.808 21.8281C21.0597 21.9927 21.3538 22.0804 21.6545 22.0804C21.9552 22.0804 22.2494 21.9927 22.5011 21.8281C22.8427 21.6106 23.2392 21.495 23.6442 21.495C24.0492 21.495 24.4458 21.6106 24.7874 21.8281C25.0391 21.9927 25.3332 22.0804 25.6339 22.0804C25.9346 22.0804 26.2288 21.9927 26.4805 21.8281C26.8224 21.6107 27.2193 21.4951 27.6245 21.4951C28.0297 21.4951 28.4266 21.6107 28.7685 21.8281C29.0206 21.9927 29.3152 22.0803 29.6162 22.0803C29.9173 22.0803 30.2118 21.9927 30.4639 21.8281C30.8024 21.6031 31.2016 21.4868 31.608 21.4951V22.0804C31.3054 22.0719 31.008 22.1603 30.7592 22.3327C30.421 22.5577 30.022 22.6739 29.6158 22.6657Z" fill="white"/>
<path d="M25.4453 22.4175L24.8931 22.2238C25.0353 21.8152 25.0934 21.3819 25.0639 20.9503C25.0344 20.5186 24.9178 20.0973 24.7213 19.7118L22.7109 15.7752C22.6911 15.7363 22.6802 15.6935 22.679 15.6499C22.6779 15.6062 22.6865 15.5629 22.7042 15.523C22.722 15.4831 22.7485 15.4477 22.7817 15.4194C22.8149 15.3911 22.854 15.3706 22.8962 15.3593L26.9025 14.2911C27.0331 14.2569 27.1449 14.1726 27.2136 14.0565C27.2823 13.9403 27.3023 13.8017 27.2694 13.6709C27.2364 13.54 27.1531 13.4275 27.0376 13.3577C26.9221 13.2879 26.7837 13.2666 26.6526 13.2984L21.8037 14.4573C21.7 14.4818 21.6034 14.5298 21.5213 14.5977C21.4392 14.6655 21.3738 14.7514 21.3302 14.8485C21.2866 14.9457 21.2659 15.0516 21.2698 15.1581C21.2737 15.2645 21.3021 15.3686 21.3527 15.4623L22.7926 18.1373C22.8291 18.2053 22.8373 18.2849 22.8154 18.3589C22.7935 18.4329 22.7432 18.4953 22.6755 18.5324L20.8171 19.5567L20.5347 19.044L22.1391 18.1595L20.8379 15.7398C20.7448 15.567 20.6927 15.3752 20.6856 15.1791C20.6785 14.983 20.7166 14.7879 20.7969 14.6089C20.8773 14.4299 20.9977 14.2717 21.1489 14.1467C21.3002 14.0216 21.4781 13.9331 21.669 13.8878L26.5156 12.7291C26.7977 12.6578 27.0967 12.7015 27.3466 12.8506C27.5965 12.9997 27.777 13.242 27.8483 13.5241C27.9195 13.8063 27.8758 14.1052 27.7267 14.3551C27.5776 14.6051 27.3354 14.7855 27.0532 14.8568L23.3967 15.8314L25.2428 19.4452C25.4753 19.9014 25.613 20.3999 25.6478 20.9107C25.6826 21.4215 25.6138 21.9341 25.4453 22.4175Z" fill="white"/>
<path d="M19.5117 19.6124L15.9551 21.5722L16.2375 22.0846L19.794 20.1248L19.5117 19.6124Z" fill="white"/>
<path d="M28.096 20.4707C27.6619 20.4707 27.2375 20.342 26.8765 20.1008C26.5156 19.8596 26.2342 19.5168 26.0681 19.1157C25.902 18.7147 25.8585 18.2733 25.9432 17.8475C26.0279 17.4217 26.2369 17.0306 26.5439 16.7236C26.8509 16.4167 27.242 16.2076 27.6678 16.1229C28.0936 16.0382 28.5349 16.0817 28.936 16.2478C29.3371 16.414 29.6799 16.6953 29.9211 17.0563C30.1623 17.4172 30.291 17.8416 30.291 18.2757C30.2904 18.8577 30.0589 19.4157 29.6474 19.8272C29.2359 20.2387 28.678 20.4701 28.096 20.4707ZM28.096 16.6661C27.7776 16.6661 27.4664 16.7605 27.2017 16.9374C26.937 17.1142 26.7307 17.3656 26.6089 17.6598C26.487 17.9539 26.4552 18.2775 26.5173 18.5898C26.5794 18.902 26.7327 19.1888 26.9578 19.414C27.1829 19.6391 27.4697 19.7924 27.782 19.8545C28.0942 19.9166 28.4179 19.8847 28.712 19.7629C29.0061 19.6411 29.2575 19.4347 29.4344 19.17C29.6113 18.9053 29.7057 18.5941 29.7057 18.2757C29.7051 17.849 29.5354 17.4399 29.2336 17.1381C28.9318 16.8364 28.5227 16.6666 28.096 16.6661Z" fill="white"/>
</svg>
