<svg width="1920" height="34" viewBox="0 0 1920 34" fill="none" xmlns="http://www.w3.org/2000/svg">
<g clip-path="url(#clip0_867_3715)">
<path d="M975.569 1.98291C973.642 1.97991 971.713 1.9769 969.789 1.9739C969.204 1.03947 970.178 0.434198 972.544 0.124056C975.804 0.376172 977.539 1.18755 975.569 1.98291Z" fill="#1D2420"/>
<path d="M598.176 3.27069C591.998 3.02258 596.106 3.89698 598.176 3.27069V3.27069Z" fill="#1D2420"/>
<path d="M569.346 4.0498C569.562 3.75366 577.238 3.58058 576.104 4.2679C573.541 4.25989 570.608 4.33393 569.346 4.0498Z" fill="#1D2420"/>
<path d="M399.992 5.85077L401.418 5.61466L400.916 5.23649C405.157 5.15745 408.361 5.30152 410.57 5.65969C408.844 6.57911 402.825 6.5541 399.992 5.85077Z" fill="#1D2420"/>
<path d="M642.741 7.043C642.551 6.86592 643.102 6.84491 643.686 6.83691C643.677 6.70285 643.667 6.56379 643.657 6.42272C646.648 6.40671 646.448 7.08002 650.43 6.84791C649.745 7.30813 645.031 6.91695 642.741 7.043Z" fill="#1D2420"/>
<path d="M659.127 7.26799C659.232 6.76076 662.386 7.21497 662.975 7.274C662.868 7.78523 659.721 7.33102 659.127 7.26799Z" fill="#1D2420"/>
<path d="M1812.06 11.267C1810.93 11.228 1811.23 10.888 1811.06 10.646C1812.69 10.572 1812.88 10.81 1813.01 11.063C1812.19 11.02 1812.11 11.14 1812.06 11.267Z" fill="#1D2420"/>
<path d="M1814.95 11.2711C1814.94 11.1321 1814.93 10.9951 1814.92 10.8581C1815.74 10.8991 1815.82 10.7791 1815.87 10.6521C1817.73 10.5751 1817.34 11.5921 1814.95 11.2711Z" fill="#1D2420"/>
<path d="M1318.14 12.3739C1318.42 12.0988 1320.54 12.2068 1321.98 12.1748C1321.75 12.65 1319.44 12.647 1318.14 12.3739Z" fill="#1D2420"/>
<path d="M539.042 11.4128C541.981 11.2678 542.57 11.6269 544.837 11.6269C544.848 11.9391 537.74 12.0651 539.042 11.4128Z" fill="#1D2420"/>
<path d="M1841.16 14.394C1841.46 14.1158 1843.56 14.2269 1845.01 14.1989C1844.77 14.6691 1842.46 14.6651 1841.16 14.394Z" fill="#1D2420"/>
<path d="M1207.57 14.677C1206.04 14.656 1203.9 14.769 1203.7 14.468L1205.12 14.228L1204.62 13.852C1211.02 13.493 1217.88 14.894 1223.86 13.678C1227.64 14.114 1229.01 15.074 1234.56 15.132C1228.38 16.201 1211.76 16.273 1207.57 14.677Z" fill="#1D2420"/>
<path d="M1832.51 14.5928C1832.11 14.845 1831.31 15.008 1829.65 14.997C1829.17 14.5558 1831 14.6049 1832.51 14.5928Z" fill="#1D2420"/>
<path d="M1235.58 15.9532C1235.48 14.3875 1245.04 14.6946 1248.07 15.566C1247.01 16.3534 1239.65 15.8071 1235.58 15.9532Z" fill="#1D2420"/>
<path d="M480.502 14.201C480.305 13.7568 483.914 14.1149 485.305 14.0069C485.495 14.4511 481.898 14.0909 480.502 14.201Z" fill="#1D2420"/>
<path d="M291.845 15.3619C292.488 15.3629 293.126 15.3639 293.77 15.3649C294.249 15.8031 292.425 15.755 290.906 15.769C291.081 15.603 291.859 15.5649 291.845 15.3619Z" fill="#1D2420"/>
<path d="M1165.42 17.9088C1167.54 16.9974 1178.65 16.9314 1182.7 17.1074L1181.27 17.3475L1181.78 17.7277C1177.91 18.1579 1169.6 18.7422 1165.42 17.9088Z" fill="#1D2420"/>
<path d="M1301.14 17.0808C1302.45 17.1468 1301.97 17.598 1302.16 17.9102C1300.32 17.8161 1299.71 17.4599 1297.32 17.49C1296.59 16.9287 1301.87 17.644 1301.14 17.0808Z" fill="#1D2420"/>
<path d="M1852.99 18.1151C1855.89 18.4711 1854.11 18.8691 1854.05 19.5591C1851.89 19.4711 1853.59 18.5431 1852.99 18.1151Z" fill="#1D2420"/>
<path d="M1255.9 17.4268C1257.84 17.77 1257.12 17.4078 1259.75 17.4328C1261.29 18.0531 1254.45 18.0431 1255.9 17.4268Z" fill="#1D2420"/>
<path d="M1800.28 21.739C1799.55 21.0577 1797.51 20.6675 1795.36 20.2903C1798.27 18.8847 1808.56 19.9562 1803.13 21.1297L1802.64 21.3338L1803.16 21.5419C1802.37 21.645 1801.6 21.751 1800.28 21.739Z" fill="#1D2420"/>
<path d="M1839.43 22.8638C1836.22 22.3928 1827.94 22.9608 1826.29 22.1718C1826.73 21.4338 1832.16 21.8278 1832.57 21.0848C1832.62 20.5678 1831.18 20.3538 1830.74 19.9358C1830.17 19.9348 1829.61 19.9348 1829.05 19.9338C1829.04 19.7998 1829.03 19.6608 1829.02 19.5218C1829.56 19.5228 1830.11 19.5238 1830.65 19.5248C1830.69 19.4598 1830.74 19.3928 1830.82 19.3178C1833.01 18.8928 1837.05 18.8838 1840.73 18.7948C1840.46 18.6558 1841.35 18.4878 1841.44 18.3068C1842.79 18.4268 1842.13 18.5858 1841.72 18.7678C1843.43 18.7168 1845.02 18.6378 1846.25 18.4758C1847.05 20.6378 1843.47 21.8008 1839.43 22.8638Z" fill="#1D2420"/>
<path d="M1283.02 19.7349C1284.67 19.1236 1288.17 19.8589 1290.74 19.7469C1289.46 20.2691 1284.83 19.7749 1283.02 19.7349Z" fill="#1D2420"/>
<path d="M488.631 20.39C485.902 22.46 474.632 21.505 465.581 21.178C465.9 20.907 467.254 20.855 467.469 20.559C464.843 20.359 461.937 20.223 459.712 19.934L460.179 19.628L458.727 19.522C473.23 19.054 495.864 17.914 504.999 20.207L503.56 20.308L504.065 20.613C499.756 20.362 494.179 20.38 488.631 20.39Z" fill="#1D2420"/>
<path d="M51.424 19.9348C51.7521 20.304 46.0585 20.296 47.5562 19.7278C49.5501 20.0849 49.4351 19.5767 51.424 19.9348Z" fill="#1D2420"/>
<path d="M1782.1 23.361C1779.23 24.049 1785.7 23.99 1782.1 23.361V23.361Z" fill="#1D2420"/>
<path d="M283.076 13.9047C282.308 13.2024 286.969 13.6556 285.891 12.8842C287.176 13.0953 289.457 13.0863 290.734 13.3004L290.284 13.6766L291.742 13.9167C290.696 14.3329 284.315 14.1488 283.076 13.9047Z" fill="#1D2420"/>
<path d="M692.362 14.3182C687.006 14.2151 679.191 14.6423 677.871 13.6789C680.095 12.7845 686.839 13.4128 693.281 13.7019L691.849 13.938L692.362 14.3182Z" fill="#1D2420"/>
<path d="M1823.65 11.9018C1823.07 11.7107 1829.4 11.7557 1828.51 12.32C1827.23 12.1059 1824.95 12.1129 1823.65 11.9018Z" fill="#1D2420"/>
<path d="M585.376 12.9217L585.832 12.5435L584.371 12.3054C593.857 11.399 608.153 12.8216 619.086 12.9727L617.643 13.0747L618.144 13.3849C606.12 14.0892 596.568 13.3519 585.376 12.9217Z" fill="#1D2420"/>
<path d="M396.856 5.47412C391.685 5.35407 386.401 5.34606 381.637 5.0029L396.856 5.47412Z" fill="#1D2420"/>
<path d="M556.67 11.4796L569.402 11.6627C565.079 11.9258 560.921 11.6147 556.67 11.4796Z" fill="#1D2420"/>
<path d="M1162.87 14.575C1160.92 14.581 1158.96 14.565 1157 14.498L1162.87 14.575Z" fill="#1D2420"/>
<path d="M1184.95 14.8511L1162.87 14.5749C1170.29 14.5529 1177.71 14.2158 1184.95 14.8511Z" fill="#1D2420"/>
<path d="M1278.9 15.8118C1276.15 15.8309 1273.39 15.8078 1270.71 15.6998L1278.9 15.8118Z" fill="#1D2420"/>
<path d="M1288.06 15.93C1287.31 15.848 1286.58 15.787 1286.12 15.724L1288.06 15.93Z" fill="#1D2420"/>
<path d="M1188.99 17.6318L1181.28 17.3487C1183.92 17.3977 1186.47 17.4508 1188.99 17.6318Z" fill="#1D2420"/>
<path d="M1802.64 21.3338C1804.3 21.3237 1805.95 21.5068 1807 21.5479L1802.64 21.3338Z" fill="#1D2420"/>
<path d="M73.9431 18.327L75.8861 18.086C75.5031 18.234 74.9851 18.342 73.9431 18.327Z" fill="#1D2420"/>
<path d="M80.6239 17.5147L75.8867 18.0859C76.441 17.8858 76.7201 17.6017 77.8486 17.5027C78.736 17.5117 79.6855 17.5087 80.6239 17.5147Z" fill="#1D2420"/>
<path d="M503.561 20.3089L507.419 20.418C506.131 20.398 504.854 20.406 503.561 20.3089Z" fill="#1D2420"/>
<path d="M455.818 19.5189L460.179 19.628C458.684 19.7521 457.265 19.635 455.818 19.5189Z" fill="#1D2420"/>
<path d="M455.818 19.519L451.498 19.405C453.036 19.2989 454.444 19.405 455.818 19.519Z" fill="#1D2420"/>
<path d="M438.49 19.2852L432.223 19.1741C434.324 19.1071 436.485 19.044 438.49 19.2852Z" fill="#1D2420"/>
<path d="M294.861 13.5991C293.351 13.6401 291.83 13.6801 290.285 13.6771L294.861 13.5991Z" fill="#1D2420"/>
<path d="M304.708 13.423L294.861 13.5991C298.127 13.5041 301.352 13.381 304.708 13.423Z" fill="#1D2420"/>
<path d="M429.723 10.935L431.661 11.145C431.013 11.124 430.369 11.032 429.723 10.935Z" fill="#1D2420"/>
<path d="M406.738 12.7577L412.524 12.9678C410.57 12.9358 408.636 12.8577 406.738 12.7577Z" fill="#1D2420"/>
<path d="M406.191 18.723L409.133 18.8521C408.142 18.819 407.147 18.795 406.191 18.723Z" fill="#1D2420"/>
<path d="M976.463 14.745C977.08 14.672 978.012 14.665 978.86 14.6449L976.463 14.745Z" fill="#1D2420"/>
<path d="M1020.68 13.6802L1020.48 13.1972C1020.58 13.3302 1020.68 13.4642 1020.68 13.6802Z" fill="#1D2420"/>
<path d="M625.923 13.4351C623.125 13.404 620.303 13.364 617.643 13.0739L625.923 13.4351Z" fill="#1D2420"/>
<path d="M634.555 13.8169L625.924 13.4347C628.905 13.4727 631.858 13.4977 634.555 13.8169Z" fill="#1D2420"/>
<path d="M585.83 12.5437L572.392 13.208C577.001 12.9179 581.069 12.6488 585.83 12.5437Z" fill="#1D2420"/>
<path d="M853.133 9.55596C853.169 9.33586 853.203 9.11776 853.239 8.89766C854.26 8.90066 855.281 8.90266 856.303 8.90566C855.183 9.10576 855.857 9.71503 853.133 9.55596Z" fill="#1D2420"/>
<path d="M868.43 9.59507C868.647 9.40899 868.066 9.38898 867.444 9.37297C867.111 8.94477 872.144 9.06283 870.466 9.60107C869.79 9.59807 869.104 9.59607 868.43 9.59507Z" fill="#1D2420"/>
<path d="M876.627 9.39575C876.828 8.90853 880.961 9.31472 882.78 9.19366C882.658 9.79494 877.88 9.70189 876.627 9.39575Z" fill="#1D2420"/>
<path d="M1853.15 13.646C1852.12 14.978 1857.8 13.805 1853.15 13.646V13.646Z" fill="#1D2420"/>
<path d="M182.808 10.4901C183.022 10.304 182.445 10.282 181.827 10.267C181.491 9.83882 186.523 9.95687 184.852 10.4951C184.17 10.4931 183.492 10.4911 182.808 10.4901Z" fill="#1D2420"/>
<path d="M187.979 10.0646C182.651 10.5828 191.394 10.6428 187.979 10.0646V10.0646Z" fill="#1D2420"/>
<path d="M879.889 14.4731C878.895 15.1103 878.32 14.7172 875.775 14.6811C875.81 14.463 875.845 14.2429 875.881 14.0228C878.685 13.8658 877.862 14.462 879.889 14.4731Z" fill="#1D2420"/>
<path d="M75.2188 13.522C77.1967 12.833 80.6333 12.034 85.5585 12.668C83.6297 13.846 89.3433 13.449 88.3318 14.438C83.0454 15.083 79.1956 13.831 75.2188 13.522Z" fill="#1D2420"/>
<path d="M884.879 15.1441C884.914 14.924 884.949 14.7039 884.984 14.4858C888.012 14.1657 887.801 15.4753 884.879 15.1441Z" fill="#1D2420"/>
<path d="M1131.7 15.3329C1133.39 15.3369 1135.09 15.3419 1136.8 15.3459C1137.05 16.0973 1130.75 16.2603 1131.7 15.3329Z" fill="#1D2420"/>
<path d="M36.5703 19.1507C37.5878 18.5094 37.5918 18.4774 36.7824 17.8291C42.7331 17.4549 46.4098 17.8951 52.1114 17.65C56.0132 17.7651 55.1909 18.8586 60.0911 18.7695C56.4354 21.0406 47.6594 18.4954 36.5703 19.1507Z" fill="#1D2420"/>
<path d="M1774.1 23.1372C1773.42 22.2998 1778.97 22.8691 1781.32 22.715C1780.26 23.1602 1777.31 23.1832 1774.1 23.1372Z" fill="#1D2420"/>
<path d="M102.325 16.2358C101.646 16.2348 100.961 16.2328 100.285 16.2308C100.499 16.0448 99.92 16.0177 99.3027 16.0047C100.254 15.7606 101.756 16.0638 102.467 15.3524C105.09 15.4165 101.006 15.7286 102.325 16.2358Z" fill="#1D2420"/>
<path d="M1654.3 16.4458L1663.88 17.1291C1659.68 17.3842 1657.75 16.6729 1654.3 16.4458Z" fill="#1D2420"/>
<path d="M112.366 14.0581C111.346 14.0291 110.329 14.0191 109.322 13.9411L112.366 14.0581Z" fill="#1D2420"/>
<path d="M287.229 17.6989L289.058 17.5719C288.319 17.6409 287.673 17.7079 287.229 17.6989Z" fill="#1D2420"/>
<path d="M577.996 23.725L580.319 23.78C579.489 23.808 578.684 23.829 577.996 23.725Z" fill="#1D2420"/>
<path d="M583.072 23.8511L580.318 23.78C581.251 23.756 582.217 23.717 583.072 23.8511Z" fill="#1D2420"/>
<path d="M752.75 15.361L748.668 15.351C749.451 15.224 751.136 15.24 752.75 15.361Z" fill="#1D2420"/>
<path d="M909 14.2158L906.879 14.1578C907.615 14.1258 908.343 14.1008 909 14.2158Z" fill="#1D2420"/>
<path d="M904.43 14.0951L906.878 14.1581C906.021 14.1971 905.161 14.2442 904.43 14.0951Z" fill="#1D2420"/>
<path d="M1152.23 17.6982L1155.35 17.5392C1154.34 17.6202 1153.3 17.6932 1152.23 17.6982Z" fill="#1D2420"/>
<path d="M1155.36 17.5391C1157.05 17.4 1158.69 17.2319 1160.46 17.2779L1155.36 17.5391Z" fill="#1D2420"/>
<path d="M0.208984 34V24H53.9979C56.0959 23.87 58.2449 23.751 60.3339 23.618C60.8861 23.748 61.2443 23.875 61.4674 24H71.391C71.4971 23.959 71.6661 23.918 71.9222 23.876C73.582 23.902 74.5005 23.967 75.3238 24H77.0636C77.5078 23.98 78.0161 23.945 78.6564 23.886C78.8325 23.93 78.9635 23.967 79.0696 24H81.5297C81.1265 23.29 77.5839 23.252 77.6009 22.448C87.0213 22.197 92.1586 21.753 95.9524 23.298C94.0035 23.608 90.3878 23.833 89.2153 23.288C88.2468 23.456 89.0922 23.692 87.8366 24H109.134C111.284 23.825 113.334 23.661 115.231 23.532C117.006 24.099 122.851 24.024 125.842 23.753C126.681 23.833 127.501 23.916 128.322 23.999H151.62C156.056 23.774 161.055 23.668 165.297 23.402C167.891 23.507 169.434 23.839 171.771 23.999H176.891C176.778 23.784 177.123 23.664 177.829 23.626C177.798 23.388 177.512 23.206 177.04 23.063C174.337 23.074 171.484 23.053 169.545 23.235C168.92 23.011 167.252 23.001 167.604 22.576C164.84 22.579 162.069 22.584 160.07 22.422C145.321 22.038 125.074 21.239 116.445 23.541C114.583 23.288 111.579 23.267 112.543 22.43C110.135 22.49 110.523 23.192 107.344 23.077C96.5947 21.721 86.8082 21.832 74.0132 21.011C73.518 20.306 76.0362 20.331 74.1903 19.909C72.4695 19.822 72.2414 20.077 72.0793 20.346C70.8558 19.904 72.8297 19.488 67.085 19.671C67.07 19.561 67.114 19.464 67.1941 19.375C65.9735 19.404 64.86 19.456 63.9225 19.546C61.9566 19.125 64.3037 19.142 64.817 18.726L60.511 19.028C60.519 18.813 61.0972 18.621 61.7035 18.487C62.738 18.477 63.9766 18.498 65.2241 18.562C65.1641 18.167 66.5518 18.103 66.3887 17.687C66.991 17.764 67.4432 17.873 67.7613 18.009C68.3056 17.759 68.5147 17.437 68.5557 17.084C69.8383 17.086 71.1249 17.088 72.4125 17.09C71.6541 17.673 73.8091 17.622 73.444 18.119C73.7661 18.119 74.0903 18.12 74.4034 18.12L73.9432 18.327L74.0953 18.391C74.2103 18.383 74.3264 18.375 74.4394 18.367L74.8926 18.699C75.5709 18.464 76.0542 18.245 77.1437 18.163C78.2432 18.205 79.3277 18.315 80.029 18.492L80.5913 18.162C79.4918 17.584 83.8958 17.224 79.7179 17.281C81.8999 16.771 88.8211 17.092 89.8746 17.527C92.4738 17.504 93.8794 17.214 94.0935 16.655C95.2341 16.734 96.6537 16.867 97.8633 17.031L98.4035 16.993C98.2745 17.014 98.1394 17.032 98.0053 17.05C99.8792 17.313 101.184 17.653 100.003 17.99C104.335 18.626 112.123 17.79 117.365 17.816C120.696 17.832 121.018 18.86 123.454 18.05C122.873 18.88 125.294 19.092 126.267 19.6C136.199 19.777 144.707 19.822 151.717 19.885C154.624 18.718 161.676 18.486 167.332 17.943C166.592 18.805 171.437 18.514 172.253 19.055C174.893 18.89 178.071 18.849 179.496 18.413C182.46 18.727 183.459 19.443 186.422 19.754C191.276 19.005 195.432 19.5 201.489 19.753C202.069 19.505 202.438 19.23 202.539 18.931C208.581 19.701 218.654 18.903 222.791 19.369C221.474 19.635 222.272 20.34 220.951 20.601C221.27 20.886 223.38 20.781 224.817 20.816C226.03 20.764 225.759 20.407 224.788 20.406C231.887 19.508 240.903 19.677 249.716 19.823C250.723 19.774 251.733 19.732 252.74 19.701L252.972 19.873C253.117 19.875 253.261 19.877 253.405 19.879C253.615 19.71 253.737 19.541 253.944 19.372C255.875 18.925 258.729 18.656 261.561 18.733L254.121 19.888C257.627 19.931 261.043 19.941 264.228 19.845C266.994 19.605 265.065 19.444 265.835 18.952C263.654 18.941 263.271 19.345 260.998 19.06L261.561 18.733L260.046 18.617C259.984 17.461 267.67 18.061 267.473 16.871C270.239 16.729 269.368 17.333 270.42 17.545L270.875 17.876L271.337 18.208C270.822 18.42 269.681 18.493 268.909 18.648C271.845 18.499 274.932 18.431 278.08 18.403C276.86 18.338 275.938 18.212 275.451 17.998L274.533 17.335C275.749 17.15 277.317 17.047 279.673 17.126C278.493 17.915 281.84 17.772 281.534 18.383C289.755 18.368 298.138 18.504 305.069 18.039C305.375 17.824 305.925 17.665 306.636 17.544L304.019 17.332C304.994 17.351 305.893 17.431 306.762 17.522C308.505 17.241 311.114 17.158 313.356 16.988C313.243 17.078 313.179 17.158 313.149 17.231C317.282 17.232 321.925 17.342 323.723 16.844C320.488 15.107 313.614 14.149 304.247 13.733L304.708 13.421L304.204 13.116C303.769 12.686 304.829 12.57 305.112 12.297C328.265 12.089 345.514 11.222 367.591 10.739C374.743 10.584 380.84 9.833 389.675 9.747C393.622 9.712 396.3 9.987 399.289 9.552C411.633 10.321 417.298 9.964 430.151 10.218C430.909 10.401 431.22 10.686 431.165 11.04L429.723 10.934L430.223 11.248C429.212 11.394 421.824 10.976 421.598 11.849C411.147 11.367 409.428 11.934 401.347 11.41C400.772 12.168 404.163 12.378 408.172 12.655L406.737 12.756L407.238 13.066C402.44 12.789 402.539 13.556 398.598 13.461C396.343 13.112 395.45 12.468 393.681 12.018C392.432 12.223 390.144 12.209 388.897 12.423C389.329 13.996 398.827 13.619 402.52 14.495C399.357 15.276 398.026 15.369 392.962 15.513C394.209 16.429 400.299 16.297 401.748 17.17C401.452 17.65 401.188 18.135 397.953 17.991C398.518 18.727 404.471 18.036 407.626 18.621L406.19 18.723L406.698 19.033C405.386 19.497 399.993 19.099 397.076 19.224C391.796 20.267 386.282 21.261 375.053 21.044C361.115 18.83 338.464 19.754 316.192 19.31C323.208 20.232 335.153 20.099 343.254 20.787C343.269 20.996 343.283 21.201 343.297 21.407C345.97 21.474 348.207 21.627 350.421 21.743C353.611 21.55 356.59 21.31 359.615 21.08C359.802 21.252 360.077 21.399 360.421 21.526C360.841 21.477 361.248 21.44 361.602 21.435C366.163 21.358 370.783 21.417 375.44 21.533C376.459 21.401 377.333 21.261 377.972 21.127C378.964 21.336 380.085 21.518 381.201 21.701C389.088 21.956 397.055 22.285 404.994 22.323C407.514 22.335 410.063 22.348 412.631 22.362C416.118 22.129 419.306 21.852 421.745 21.68C423.139 21.506 426.145 22.033 428.595 22.453C430.111 22.463 431.624 22.472 433.153 22.482C436.027 22.244 439.417 22.389 442.744 22.551C446.097 22.577 449.471 22.605 452.866 22.635C453.362 22.581 453.831 22.513 454.264 22.423C454.521 22.513 454.814 22.588 455.122 22.655C458.711 22.688 462.324 22.726 465.949 22.765C467.905 22.65 469.848 22.525 471.598 22.467C472.042 22.628 473.025 22.679 473.418 22.852C484.725 22.99 496.148 23.164 507.558 23.388C519.899 23.476 532.589 23.618 543.783 23.972L543.732 24H548.129L547.86 23.979C553.551 23.594 561.951 23.823 568.323 23.591C567.855 23.722 567.408 23.857 566.995 24H621.07C622.626 23.95 624.222 23.96 625.84 24H649.539C649.308 23.793 649.205 23.559 648.949 23.356C650.644 23.342 651.363 23.638 651.466 23.932C652.139 23.943 652.748 23.969 653.333 24H660.761C660.375 23.649 658.036 23.275 658.277 22.701C662.72 22.492 660.432 21.776 663.008 21.475C661.827 20.752 659.211 20.342 659.014 19.411C660.766 19.134 665.917 19.471 664.865 20.448C670.94 21.054 673.113 20.183 677.336 19.851C675.299 19.098 675.881 18.74 675.277 17.995C678.534 18.447 679.747 17.755 683.005 18.212C688.291 17.246 683.383 16.625 681.807 14.915C688.06 15.526 697.478 16.69 703.026 15.362C700.213 14.852 696.146 14.62 692.361 14.318L693.786 14.082L693.28 13.702C697.442 13.453 700.982 13.786 704.871 14.13C708.203 14.094 708.472 13.408 711.556 13.317C714.994 13.341 716.778 13.72 717.401 14.355C719.532 14.272 718.246 13.229 716.358 13.324C721.775 12.723 729.044 13.509 732.781 13.964C729.14 14.686 732.585 14.498 735.741 14.996C739.93 15.663 743.25 17.028 746.493 17.279C746.006 17.474 745.242 17.658 744.301 17.824C748.058 17.551 752.097 17.404 757.001 17.459C758.565 16.072 752.256 16.31 751.204 15.465L752.75 15.361L752.294 15.026C758.372 14.272 762.591 13.097 770.017 12.646C769.958 13.013 769.898 13.385 769.84 13.752C777.226 16.672 802.357 14.646 814.28 16.507C830.277 15.77 845.537 16.007 862.344 15.749C865.878 15.801 866.089 16.536 869.334 16.647C873.3 16.71 874.7 16.186 877.602 16.008C886.342 16.956 893.361 15.901 899.192 14.96C902.168 15.267 906.526 15.297 908.403 14.764C908.239 14.585 907.417 14.543 907.455 14.323L909.001 14.216L908.543 13.885C912.795 13.414 915.037 14.297 918.634 14.571C924.99 14.089 931.106 13.734 937.13 13.734C938.226 15.367 942.588 15.622 948.06 15.525C953.559 15.43 957.556 13.446 961.524 14.24C963.25 14.082 966.533 14.413 967.791 14.731L966.355 14.831L966.861 15.143C967.008 15.663 968.313 15.939 970.768 15.969C971.826 15.324 969.219 15.469 968.785 15.146L970.223 15.044L969.72 14.734C971.164 14.086 975.518 15.002 976.448 14.537L976.463 14.745H977.425C979.498 15.713 984.662 16.278 990.862 16.502C993.496 16.2 995.708 15.802 995.1 14.765C998.487 15.058 1002.62 15.2 1005.16 15.669C1007.12 15.576 1008.87 15.396 1010.72 15.251C1010.9 15.104 1010.87 15.005 1010.19 14.995C1011.47 14.392 1017.13 14.714 1019.76 14.394C1018.63 14.088 1018.62 13.876 1019.71 13.573L1020.68 13.678L1021.64 13.576C1030.99 14.564 1034.13 12.418 1037.91 12.16C1032.93 11.91 1030.78 11.051 1029.1 10.089C1036.24 9.642 1045.06 9.553 1050.19 8.68C1047.1 8.083 1040.18 9.044 1040.44 7.016C1045.5 7.177 1054.06 7.171 1058.82 8.279C1061.55 8.455 1061.29 7.997 1063.63 8.079C1068.01 8.811 1071.92 9.635 1076.3 10.361C1080.93 10.333 1085.46 10.281 1088.79 9.973C1091.3 10.545 1091.35 11.651 1096.61 11.63C1097.29 12.381 1096.04 12.725 1094.79 13.07C1096.36 13.843 1102.18 13.701 1104.5 14.317C1104.68 14.898 1102.19 14.902 1099.74 14.927C1100.32 15.394 1100.04 15.836 1099.28 16.257C1101.29 16.254 1103.59 16.057 1106.06 16.145C1107.22 16.186 1109.27 16.627 1111.09 16.6C1116.79 16.509 1121.33 15.533 1124.52 15.532C1128.08 15.53 1134.4 15.975 1132.4 17.315C1135.34 17.177 1138 17.124 1140.66 17.125C1143.49 16.442 1150.38 16.568 1152.59 17.361C1152.66 17.363 1152.72 17.365 1152.79 17.367L1152.72 17.409C1152.77 17.431 1152.83 17.452 1152.87 17.475C1152.78 17.477 1152.68 17.48 1152.59 17.482L1152.23 17.694L1153.74 17.807C1153.12 18.125 1152.06 18.341 1150.57 18.46C1159.55 19.958 1175.26 18.754 1187.11 19.659C1194.52 18.833 1206.3 18.982 1214.6 19.949C1229.19 18.743 1247 20.047 1259.28 21.162C1262.86 20.864 1265.71 21.13 1268.7 21.368C1268.7 21.362 1268.7 21.357 1268.7 21.351C1270.09 21.241 1273.7 21.601 1273.5 21.153C1274.59 21.192 1274.05 21.359 1273.51 21.358C1273.66 21.482 1274.13 21.535 1274.37 21.639C1274.42 21.639 1274.47 21.64 1274.51 21.64C1277.33 21.634 1279.59 21.246 1282.31 21.074L1282.15 20.956C1282.82 20.976 1283.5 20.988 1284.19 20.997C1285.01 20.983 1285.83 20.988 1286.66 21.009C1294.84 20.993 1304.01 20.45 1311.02 20.591C1312.29 20.45 1310.51 20.039 1311.91 19.56C1317.16 19.664 1316.94 18.604 1321.47 18.547C1321.28 17.326 1313.93 18.324 1311.79 17.919C1311.66 16.354 1323.3 16.832 1326.14 16.498C1325.88 15.743 1324.75 15.706 1326.04 15.058C1330.34 15.176 1332.07 15.846 1332.9 16.712C1337.69 16.986 1337.59 16.224 1341.53 16.317C1343 19.226 1361.25 17.772 1365.84 19.642C1368.97 19.769 1370.3 19.51 1372.57 19.451C1374.91 20.083 1375.9 21.584 1370.81 21.912C1370.93 21.997 1371.05 22.06 1371.17 22.11C1373.83 22.034 1376.35 21.952 1378.52 21.904C1381.82 21.719 1379.8 22.634 1382.49 22.575C1390.22 22.045 1402.87 22.623 1408.16 21.54C1413.79 22.343 1424.29 21.779 1431.61 21.6C1445.43 21.265 1459 22.486 1472.29 22.364C1478.11 21.355 1485.14 21.907 1491.84 21.315C1494.81 22.166 1501.05 21.489 1507.1 21.572C1512.08 21.643 1517.52 22.248 1523.35 22.054C1525.56 21.982 1527.58 21.504 1529.57 21.411C1538.15 21 1545.62 21.285 1553.02 21.471C1559.97 21.643 1566.2 21.113 1573.48 21.083C1579.54 21.057 1585.66 21.492 1591.81 21.35C1594.61 21.282 1597.38 20.935 1600.03 20.931C1602.52 20.918 1605.48 21.21 1608.15 21.172C1618.8 21.011 1629.85 20.253 1640.74 21.475C1651.07 20.083 1662.1 20.118 1675.77 19.357C1675.29 18.541 1674.3 18.077 1677.07 17.599C1678.86 18.49 1683.41 17.538 1685.12 18.282C1684.76 18.732 1682.31 18.715 1680.93 18.932C1683.26 19.515 1684.77 20.268 1688.84 20.491C1694.71 19.136 1698.38 20.756 1701.93 21.631C1704.71 21.425 1706.93 21.089 1707.23 20.322C1715.78 20.3 1724.45 20.855 1733.59 21.271C1745.52 18.439 1761.91 19.879 1773.3 21.813C1772.94 22.942 1769.31 23.324 1766.95 23.997H1779.99C1780.71 23.979 1781.33 23.981 1781.88 23.997H1833.39C1834.34 23.933 1835.28 23.851 1836.23 23.733C1837.59 23.752 1838.56 23.854 1839.32 23.997H1847.93C1849.49 23.166 1849.69 22.03 1854.87 22.021C1853.9 22.411 1853.55 22.887 1853.83 23.305C1855.07 23.243 1856.58 23.229 1856.24 23.264C1858.39 23.74 1855.85 23.736 1854.34 23.7C1854.56 23.81 1854.85 23.91 1855.19 23.997H1863.14C1866.03 23.703 1867.95 23.188 1870.06 22.718C1873.04 22.888 1873.98 23.38 1873.94 23.997H1878.01C1878.02 23.945 1878.03 23.892 1878.04 23.84C1878.72 23.842 1879.39 23.843 1880.08 23.845C1880.07 23.896 1880.06 23.947 1880.05 23.997H1894.98C1896.18 23.744 1896.59 23.314 1899.52 23.454C1898.98 23.665 1898.41 23.87 1897.49 23.997H1921.1V34H0.208984ZM65.2431 18.564C65.4753 18.576 65.7064 18.591 65.9375 18.606C65.7444 18.584 65.5243 18.568 65.2431 18.564ZM76.4343 18.637C76.4253 18.693 76.4163 18.752 76.4063 18.812C77.0856 18.813 77.767 18.815 78.4503 18.817C78.4643 18.732 78.4783 18.642 78.4933 18.552L76.4343 18.637ZM343.799 14.823C341.055 14.377 332.723 14.297 331.32 15.212C336.492 14.967 342.596 16.031 343.799 14.823ZM193.025 23.075C192.964 23.057 192.897 23.041 192.827 23.025C192.417 23.184 192.211 23.387 192.276 23.648C192.525 23.648 192.777 23.648 193.027 23.649C192.795 23.506 192.759 23.322 193.025 23.075ZM211.54 23.677C211.494 23.673 211.453 23.668 211.409 23.664C207.928 23.522 204.584 23.513 202.134 23.797C204.585 23.861 207.074 23.934 209.564 24.001H217.283C215.469 23.874 213.575 23.758 211.706 23.678C211.651 23.677 211.596 23.677 211.54 23.677ZM302.375 22.906C300.306 22.963 298.396 23.077 296.875 23.254C299.658 23.462 303.108 23.496 302.97 22.988C302.783 22.962 302.582 22.934 302.375 22.906ZM318.035 18.072C315.83 18.015 314.419 18.116 314.217 18.481C315.913 18.438 319.048 18.696 318.035 18.072ZM232.007 23.791C229.558 23.611 226.794 23.641 224.935 24H228.622C229.77 23.944 230.905 23.879 232.007 23.791ZM731.17 18.492C732.064 18.623 732.976 18.751 733.903 18.875C734.919 18.754 735.917 18.638 736.905 18.527C734.973 18.598 732.988 18.595 731.17 18.492ZM960.663 14.936C960.066 15.041 959.491 15.162 959.315 15.333C960.523 15.912 962.315 16.274 964.524 16.491C962.263 16.098 960.817 15.522 960.663 14.936ZM1160.94 23.78C1160.65 23.863 1160.29 23.933 1159.93 24H1164.65C1163.8 23.847 1162.78 23.728 1160.94 23.78ZM1171.21 24H1181.46C1181.04 23.88 1180.64 23.758 1180.36 23.61C1175.56 23.345 1173.32 23.657 1171.21 24ZM1225.18 23.944C1224.59 23.966 1223.98 23.984 1223.37 24H1225.84C1225.63 23.979 1225.41 23.961 1225.18 23.944Z" fill="#1D2420"/>
</g>
<defs>
<clipPath id="clip0_867_3715">
<rect width="1921.31" height="34" fill="white" transform="matrix(1 0 0 -1 0 34)"/>
</clipPath>
</defs>
</svg>
