<svg width="43" height="44" viewBox="0 0 43 44" fill="none" xmlns="http://www.w3.org/2000/svg">
<rect width="42.4122" height="43.3146" rx="11.731" fill="#006380"/>
<path d="M14.8894 23.5749C14.6217 23.5749 14.36 23.6543 14.1374 23.803C13.9148 23.9517 13.7413 24.1631 13.6389 24.4105C13.5364 24.6578 13.5096 24.93 13.5618 25.1925C13.6141 25.4551 13.743 25.6963 13.9323 25.8856C14.1216 26.0749 14.3628 26.2038 14.6253 26.2561C14.8879 26.3083 15.1601 26.2815 15.4074 26.179C15.6547 26.0766 15.8661 25.9031 16.0149 25.6805C16.1636 25.4579 16.243 25.1962 16.243 24.9285C16.243 24.5695 16.1004 24.2252 15.8465 23.9713C15.5927 23.7175 15.2484 23.5749 14.8894 23.5749ZM14.8894 25.6053C14.7556 25.6053 14.6247 25.5656 14.5134 25.4912C14.4021 25.4168 14.3154 25.3111 14.2641 25.1875C14.2129 25.0638 14.1995 24.9277 14.2256 24.7964C14.2517 24.6652 14.3162 24.5446 14.4108 24.4499C14.5055 24.3553 14.6261 24.2908 14.7574 24.2647C14.8887 24.2386 15.0247 24.252 15.1484 24.3032C15.2721 24.3544 15.3778 24.4412 15.4521 24.5525C15.5265 24.6638 15.5662 24.7946 15.5662 24.9285C15.5662 25.108 15.4949 25.2801 15.368 25.407C15.2411 25.534 15.0689 25.6053 14.8894 25.6053Z" fill="white"/>
<path d="M28.4252 23.5749C28.1575 23.5749 27.8958 23.6543 27.6732 23.803C27.4506 23.9517 27.2771 24.1631 27.1746 24.4105C27.0722 24.6578 27.0454 24.93 27.0976 25.1925C27.1498 25.4551 27.2787 25.6963 27.468 25.8856C27.6574 26.0749 27.8985 26.2038 28.1611 26.2561C28.4237 26.3083 28.6958 26.2815 28.9432 26.179C29.1905 26.0766 29.4019 25.9031 29.5506 25.6805C29.6994 25.4579 29.7788 25.1962 29.7788 24.9285C29.7788 24.5695 29.6361 24.2252 29.3823 23.9713C29.1285 23.7175 28.7842 23.5749 28.4252 23.5749ZM28.4252 25.6053C28.2913 25.6053 28.1605 25.5656 28.0492 25.4912C27.9379 25.4168 27.8511 25.3111 27.7999 25.1875C27.7487 25.0638 27.7353 24.9277 27.7614 24.7964C27.7875 24.6652 27.852 24.5446 27.9466 24.4499C28.0413 24.3553 28.1619 24.2908 28.2931 24.2647C28.4244 24.2386 28.5605 24.252 28.6842 24.3032C28.8078 24.3544 28.9135 24.4412 28.9879 24.5525C29.0623 24.6638 29.102 24.7946 29.102 24.9285C29.102 25.108 29.0307 25.2801 28.9037 25.407C28.7768 25.534 28.6047 25.6053 28.4252 25.6053Z" fill="white"/>
<path d="M18.6118 25.2668H24.7029V25.9436H18.6118V25.2668Z" fill="white"/>
<path d="M18.6118 23.9133H24.7029V24.5901H18.6118V23.9133Z" fill="white"/>
<path d="M20.6421 18.8373H22.6725V19.5141H20.6421V18.8373Z" fill="white"/>
<path d="M31.8092 21.8829V21.2061C31.8084 20.9371 31.7011 20.6794 31.5109 20.4891C31.3207 20.2989 31.063 20.1917 30.794 20.1909H29.4539L28.7535 17.7342L28.5436 16.8983C28.4886 16.6789 28.3618 16.4841 28.1834 16.3449C28.005 16.2057 27.7852 16.1302 27.5589 16.1302H24.7029V14.7766C24.7023 14.5973 24.6308 14.4254 24.504 14.2986C24.3772 14.1718 24.2054 14.1003 24.0261 14.0998H19.2885C19.1092 14.1003 18.9374 14.1718 18.8106 14.2986C18.6837 14.4254 18.6123 14.5973 18.6117 14.7766V16.1302H15.7557C15.5294 16.1302 15.3096 16.2057 15.1312 16.3449C14.9528 16.4841 14.826 16.6789 14.7709 16.8983L14.5645 17.7308L13.8607 20.1909H12.5206C12.2516 20.1917 11.9939 20.2989 11.8037 20.4891C11.6135 20.6794 11.5062 20.9371 11.5054 21.2061V21.8829C11.506 22.0543 11.55 22.2228 11.6335 22.3725C11.717 22.5223 11.8371 22.6484 11.9826 22.739C11.6767 23.0534 11.5055 23.4746 11.5054 23.9133V27.974C11.5059 28.116 11.5363 28.2562 11.5946 28.3857C11.6529 28.5151 11.7378 28.6308 11.8438 28.7252V30.0044C11.8446 30.2734 11.9518 30.5311 12.1421 30.7213C12.3323 30.9115 12.59 31.0188 12.859 31.0196H15.5662C15.8352 31.0188 16.0929 30.9115 16.2831 30.7213C16.4733 30.5311 16.5806 30.2734 16.5814 30.0044V28.9892H26.7332V30.0044C26.734 30.2734 26.8412 30.5311 27.0315 30.7213C27.2217 30.9115 27.4794 31.0188 27.7484 31.0196H30.4556C30.7246 31.0188 30.9823 30.9115 31.1725 30.7213C31.3627 30.5311 31.47 30.2734 31.4708 30.0044V28.7252C31.5768 28.6308 31.6617 28.5151 31.72 28.3857C31.7783 28.2562 31.8087 28.116 31.8092 27.974V23.9133C31.8091 23.4746 31.6379 23.0534 31.332 22.739C31.4775 22.6484 31.5976 22.5223 31.6811 22.3725C31.7645 22.2228 31.8086 22.0543 31.8092 21.8829ZM19.2885 14.7766H24.0261V16.1302H19.2885V14.7766ZM15.4274 17.0641C15.4456 16.9908 15.4877 16.9256 15.5472 16.879C15.6067 16.8324 15.6801 16.807 15.7557 16.807H27.5589C27.6345 16.807 27.7079 16.8324 27.7674 16.879C27.8268 16.9256 27.869 16.9908 27.8872 17.0641L27.9921 17.4837H15.3225L15.4274 17.0641ZM15.1432 18.1605H28.1714L29.3287 22.2213H19.5965C19.5169 21.7484 19.2724 21.319 18.9063 21.0093C18.5401 20.6996 18.0761 20.5296 17.5966 20.5296C17.117 20.5296 16.653 20.6996 16.2868 21.0093C15.9207 21.319 15.6762 21.7484 15.5966 22.2213H13.9859L15.1432 18.1605ZM18.9028 22.2213H16.2903C16.3642 21.9309 16.5328 21.6734 16.7693 21.4896C17.0059 21.3057 17.2969 21.2058 17.5966 21.2058C17.8962 21.2058 18.1872 21.3057 18.4238 21.4896C18.6603 21.6734 18.8289 21.9309 18.9028 22.2213ZM12.1822 21.2061C12.1822 21.1163 12.2179 21.0303 12.2813 20.9668C12.3448 20.9034 12.4309 20.8677 12.5206 20.8677H13.6678L13.282 22.2213H12.5206C12.4309 22.2213 12.3448 22.1856 12.2813 22.1222C12.2179 22.0587 12.1822 21.9726 12.1822 21.8829V21.2061ZM15.9046 30.0044C15.9046 30.0941 15.8689 30.1802 15.8055 30.2437C15.742 30.3071 15.6559 30.3428 15.5662 30.3428H12.859C12.7693 30.3428 12.6832 30.3071 12.6197 30.2437C12.5563 30.1802 12.5206 30.0941 12.5206 30.0044V28.9892H15.9046V30.0044ZM30.794 30.0044C30.794 30.0941 30.7583 30.1802 30.6949 30.2437C30.6314 30.3071 30.5453 30.3428 30.4556 30.3428H27.7484C27.6587 30.3428 27.5726 30.3071 27.5091 30.2437C27.4457 30.1802 27.41 30.0941 27.41 30.0044V28.9892H30.794V30.0044ZM31.1324 27.974C31.1324 28.0638 31.0967 28.1498 31.0333 28.2133C30.9698 28.2768 30.8837 28.3124 30.794 28.3124H12.5206C12.4309 28.3124 12.3448 28.2768 12.2813 28.2133C12.2179 28.1498 12.1822 28.0638 12.1822 27.974V27.6356H31.1324V27.974ZM31.1324 26.9588H12.1822V23.9133C12.183 23.6443 12.2902 23.3865 12.4805 23.1963C12.6707 23.0061 12.9284 22.8989 13.1974 22.8981H30.1172C30.3862 22.8989 30.6439 23.0061 30.8341 23.1963C31.0244 23.3865 31.1316 23.6443 31.1324 23.9133V26.9588ZM31.1324 21.8829C31.1324 21.9726 31.0967 22.0587 31.0333 22.1222C30.9698 22.1856 30.8837 22.2213 30.794 22.2213H30.0326L29.6468 20.8677H30.794C30.8837 20.8677 30.9698 20.9034 31.0333 20.9668C31.0967 21.0303 31.1324 21.1163 31.1324 21.2061V21.8829Z" fill="white"/>
</svg>
